<svg width="856" height="857" viewBox="0 0 856 857" fill="none" xmlns="http://www.w3.org/2000/svg">
<path d="M371.038 839.133C366.345 839.133 362.534 842.934 362.534 847.646C362.534 852.339 366.345 856.15 371.038 856.15C375.74 856.15 379.542 852.339 379.542 847.646C379.542 842.934 375.74 839.133 371.038 839.133Z" fill="#2F7B9A"/>
<path d="M289.557 818.381C289.557 835.408 264.018 835.408 264.018 818.381C264.018 801.355 289.557 801.355 289.557 818.381Z" fill="#2F7B9A"/>
<path d="M210.171 767.293C210.171 777.143 202.188 785.116 192.348 785.116C182.498 785.116 174.524 777.143 174.524 767.293C174.524 757.452 182.498 749.469 192.348 749.469C202.188 749.469 210.171 757.452 210.171 767.293Z" fill="#2F7B9A"/>
<path d="M122.52 674.606C109.873 674.606 99.6152 684.864 99.6152 697.511C99.6152 710.158 109.873 720.416 122.52 720.416C135.167 720.416 145.434 710.158 145.434 697.511C145.425 684.864 135.167 674.606 122.52 674.606Z" fill="#2F7B9A"/>
<path d="M99.3588 613.107C99.3588 628.57 86.8256 641.103 71.3635 641.103C55.9009 641.103 43.3682 628.57 43.3682 613.107C43.3682 597.645 55.9014 585.112 71.3635 585.112C86.8261 585.112 99.3588 597.645 99.3588 613.107Z" fill="#2F7B9A"/>
<path d="M74.2916 518.891C74.2916 536.705 59.8435 551.153 42.0296 551.153C24.2158 551.153 9.77734 536.705 9.77734 518.891C9.77734 501.078 24.216 486.639 42.0296 486.639C59.8433 486.639 74.2916 501.078 74.2916 518.891Z" fill="#2F7B9A"/>
<path d="M72.0817 420.379C72.0817 440.288 55.946 456.415 36.0457 456.415C16.1368 456.415 0 440.289 0 420.379C0 400.48 16.1356 384.343 36.0457 384.343C55.9451 384.343 72.0817 400.479 72.0817 420.379Z" fill="#2F7B9A"/>
<path d="M53.7071 362.01C75.0855 362.01 92.4249 344.671 92.4249 323.293C92.4249 301.914 75.0947 284.584 53.7071 284.584C32.3287 284.584 14.999 301.915 14.999 323.293C14.999 344.671 32.3292 362.01 53.7071 362.01Z" fill="#2F7B9A"/>
<path d="M134.449 233.307C134.449 255.586 116.389 273.656 94.1007 273.656C71.8216 273.656 53.752 255.586 53.752 233.307C53.752 211.018 71.8216 192.958 94.1007 192.958C116.389 192.958 134.449 211.018 134.449 233.307Z" fill="#2F7B9A"/>
<path d="M195.905 155.618C195.905 178.219 177.588 196.544 154.988 196.544C132.388 196.544 114.071 178.219 114.071 155.618C114.071 133.026 132.388 114.701 154.988 114.701C177.588 114.701 195.905 133.027 195.905 155.618Z" fill="#2F7B9A"/>
<path d="M232.577 135.087C254.922 135.087 273.04 116.97 273.04 94.6247C273.04 72.2789 254.923 54.1619 232.577 54.1619C210.232 54.1619 192.114 72.2789 192.114 94.6247C192.114 116.97 210.231 135.087 232.577 135.087Z" fill="#2F7B9A"/>
<path d="M322.523 92.9292C343.996 92.9292 361.403 75.5231 361.403 54.0488C361.403 32.5661 343.997 15.1611 322.523 15.1611C301.05 15.1611 283.643 32.5673 283.643 54.0488C283.633 75.5221 301.039 92.9292 322.523 92.9292Z" fill="#2F7B9A"/>
<path d="M419.547 0C399.534 0 383.302 16.221 383.302 36.2447C383.302 56.2683 399.533 72.4991 419.547 72.4991C439.57 72.4991 455.792 56.2686 455.792 36.2447C455.801 16.2315 439.571 0 419.547 0Z" fill="#2F7B9A"/>
<path d="M518.093 9.53857C500.146 9.53857 485.593 24.091 485.593 42.0481C485.593 59.9945 500.145 74.5576 518.093 74.5576C536.048 74.5576 550.592 60.0052 550.592 42.0481C550.592 24.0923 536.049 9.53857 518.093 9.53857Z" fill="#2F7B9A"/>
<path d="M640.582 71.2338C640.582 55.6479 627.944 43.02 612.368 43.02C596.782 43.02 584.154 55.6479 584.154 71.2338C584.154 86.8197 596.782 99.4476 612.368 99.4476C627.944 99.4381 640.582 86.8102 640.582 71.2338Z" fill="#2F7B9A"/>
<path d="M719.969 122.25C719.969 135.02 709.616 145.382 696.837 145.382C684.067 145.382 673.705 135.02 673.705 122.25C673.705 109.47 684.067 99.1174 696.837 99.1174C709.616 99.1174 719.969 109.47 719.969 122.25Z" fill="#2F7B9A"/>
<path d="M766.735 173.942C756.79 173.942 748.704 182.01 748.704 191.955C748.704 201.9 756.781 209.968 766.735 209.968C776.681 209.968 784.758 201.9 784.758 191.955C784.758 182.019 776.681 173.942 766.735 173.942Z" fill="#2F7B9A"/>
<path d="M817.968 263.426C810.839 263.426 805.065 269.209 805.065 276.328C805.065 283.458 810.839 289.231 817.968 289.231C825.097 289.231 830.871 283.458 830.871 276.328C830.88 269.209 825.107 263.426 817.968 263.426Z" fill="#2F7B9A"/>
<path d="M847.382 361.914C842.614 361.914 838.765 365.773 838.765 370.532C838.765 375.291 842.623 379.14 847.382 379.14C852.142 379.14 856 375.282 856 370.532C856 365.773 852.142 361.914 847.382 361.914Z" fill="#2F7B9A"/>
<path d="M424.845 201.319C424.845 217.569 400.471 217.569 400.471 201.319C400.471 185.07 424.845 185.07 424.845 201.319Z" fill="#2F7B9A"/>
<path d="M342.274 232.142C342.274 243.385 333.163 252.506 321.91 252.506C310.666 252.506 301.546 243.385 301.546 232.142C301.546 220.888 310.666 211.768 321.91 211.768C333.163 211.768 342.274 220.888 342.274 232.142Z" fill="#2F7B9A"/>
<path d="M278.426 295.318C278.426 279.552 265.637 266.752 249.861 266.752C234.084 266.752 221.295 279.551 221.295 295.318C221.295 311.103 234.084 323.891 249.861 323.891C265.636 323.881 278.426 311.102 278.426 295.318Z" fill="#2F7B9A"/>
<path d="M172.342 381.307C172.342 400.77 188.117 416.537 207.572 416.537C227.035 416.537 242.812 400.771 242.812 381.307C242.812 361.853 227.036 346.076 207.572 346.076C188.118 346.076 172.342 361.852 172.342 381.307Z" fill="#2F7B9A"/>
<path d="M240.612 476.927C240.612 498.714 222.959 516.366 201.173 516.366C179.396 516.366 161.734 498.714 161.734 476.927C161.734 455.151 179.396 437.489 201.173 437.489C222.959 437.489 240.612 455.151 240.612 476.927Z" fill="#2F7B9A"/>
<path d="M272.919 567.697C272.919 545.096 254.603 526.781 232.003 526.781C209.402 526.781 191.086 545.097 191.086 567.697C191.086 590.308 209.402 608.624 232.003 608.624C254.603 608.624 272.919 590.308 272.919 567.697Z" fill="#2F7B9A"/>
<path d="M295.175 600.22C273.341 600.22 255.632 617.92 255.632 639.763C255.632 661.606 273.341 679.316 295.175 679.316C317.008 679.316 334.718 661.616 334.718 639.763C334.718 617.92 317.008 600.22 295.175 600.22Z" fill="#2F7B9A"/>
<path d="M381.163 646.599C361.586 646.599 345.724 662.46 345.724 682.028C345.724 701.597 361.585 717.458 381.163 717.458C400.73 717.458 416.602 701.597 416.602 682.028C416.602 662.47 400.731 646.599 381.163 646.599Z" fill="#2F7B9A"/>
<path d="M476.783 659.632C460.874 659.632 447.981 672.525 447.981 688.433C447.981 704.341 460.875 717.234 476.783 717.234C492.681 717.234 505.593 704.341 505.593 688.433C505.593 672.525 492.681 659.632 476.783 659.632Z" fill="#2F7B9A"/>
<path d="M567.548 637.035C556.19 637.035 546.984 646.25 546.984 657.608C546.984 668.975 556.19 678.181 567.548 678.181C578.915 678.181 588.13 668.966 588.13 657.608C588.13 646.241 578.915 637.035 567.548 637.035Z" fill="#2F7B9A"/>
<path d="M639.614 582.09C632.797 582.09 627.28 587.607 627.28 594.414C627.28 601.231 632.797 606.748 639.614 606.748C646.411 606.748 651.948 601.231 651.948 594.414C651.948 587.607 646.411 582.09 639.614 582.09Z" fill="#2F7B9A"/>
</svg>
