<svg width="651" height="651" viewBox="0 0 651 651" fill="none" xmlns="http://www.w3.org/2000/svg">
<path d="M569.612 324.815H569.605C569.605 325.033 569.612 325.251 569.612 325.469C569.612 402.561 533.686 471.408 477.706 516.185C554.908 466.135 606.099 379.219 606.099 280.552C606.099 131.134 488.728 8.63179 341.339 0.392341C336.086 0.138053 330.811 0 325.493 0C213.745 0 114.987 56.6123 56.3441 142.654C109.389 77.4917 190.193 35.7886 280.576 35.7886C439.955 35.7886 569.608 165.453 569.608 324.82L569.612 324.815Z" fill="#00693E"/>
<path d="M504.422 53.7314C571.437 106.709 614.513 188.691 614.513 280.549C614.513 437.77 488.336 566.065 331.916 569.506C329.78 569.564 327.644 569.593 325.494 569.593C250.072 569.593 182.542 535.214 137.735 481.305C188.215 555.992 273.669 605.192 370.411 605.192C522.437 605.192 646.591 483.687 650.906 332.695C650.956 330.297 651 327.9 651 325.488C651 212.062 592.667 112.006 504.429 53.7349L504.422 53.7314Z" fill="#00693E"/>
<path d="M36.4475 370.402C36.4475 213.201 162.587 84.9224 318.969 81.4443C321.142 81.3862 323.321 81.3571 325.515 81.3571C403.922 81.3571 473.794 118.513 518.482 176.133C468.817 96.9488 380.761 44.1885 280.58 44.1885C133.174 44.1885 11.9514 158.421 0.791919 303.015C0.283343 310.44 0 317.923 0 325.472C0 438.832 58.2602 538.823 146.396 597.113C79.454 544.143 36.4284 462.204 36.4284 370.407L36.4475 370.402Z" fill="#FA8334"/>
<path d="M370.396 613.605C211.018 613.605 81.3646 483.948 81.3646 324.573H81.3937C81.677 247.736 117.64 179.172 173.54 134.583C96.1632 184.598 44.8499 271.621 44.8499 370.42C44.8499 519.977 162.44 642.564 310.019 650.599C315.148 650.839 320.306 650.977 325.494 650.977C441.369 650.977 543.272 590.101 600.967 498.666C548.162 568.435 464.465 613.603 370.411 613.603L370.396 613.605Z" fill="#2F7B9A"/>
</svg>
