<svg width="894" height="894" viewBox="0 0 894 894" fill="none" xmlns="http://www.w3.org/2000/svg">
<path fill-rule="evenodd" clip-rule="evenodd" d="M242.661 548.784H326.699C334.895 548.784 341.606 555.477 341.606 563.679V675.245C341.606 680.314 339.15 684.65 334.814 687.257C330.49 689.87 325.496 690.008 321.015 687.652C287.159 669.768 257.487 644.997 233.851 615.238C229.74 610.074 227.76 604.385 227.76 597.793V563.685C227.76 555.488 234.471 548.79 242.668 548.79L242.661 548.784ZM664.494 615.245C640.858 645.004 611.181 669.761 577.31 687.646C572.849 690.002 567.848 689.864 563.512 687.251C559.188 684.638 556.731 680.302 556.731 675.239V314.974C556.731 306.765 563.424 300.067 571.639 300.067H655.677C663.873 300.067 670.572 306.759 670.572 314.974V597.789C670.572 604.4 668.591 610.071 664.493 615.254L664.494 615.245Z" fill="#2F7B9A"/>
<path fill-rule="evenodd" clip-rule="evenodd" d="M449.166 719.309C460.033 719.309 470.741 718.664 481.281 717.442H481.286C495.505 715.782 506.101 703.881 506.101 689.563V442.601C506.101 434.405 499.39 427.694 491.193 427.694H407.156C398.959 427.694 392.248 434.405 392.248 442.601V689.563C392.248 703.882 402.845 715.788 417.063 717.442C427.591 718.664 438.313 719.309 449.166 719.309Z" fill="#FA8334"/>
<path fill-rule="evenodd" clip-rule="evenodd" d="M516.51 0.345999C711.497 29.6654 865.449 184.312 893.683 379.652C894.892 388.005 892.63 395.656 887.116 402.041C881.583 408.414 874.326 411.742 865.893 411.742H775.332C761.672 411.742 750.224 402.211 747.736 388.794C725.051 266.463 629.046 169.889 507.014 146.356C493.679 143.786 484.261 132.376 484.261 118.803V28.1108C484.261 19.6451 487.6 12.3636 494.017 6.82989C500.434 1.31556 508.135 -0.9152 516.519 0.344234L516.51 0.345999ZM892.913 514.322C859.363 729.216 673.478 893.66 449.167 893.66C201.099 893.66 0 692.561 0 444.492C0 344.752 32.5213 252.618 87.5331 178.088C92.5587 171.283 99.5769 167.404 108.023 166.777C116.458 166.144 123.983 168.927 129.962 174.917L194.066 239.021C203.666 248.621 205.082 263.334 197.462 274.589C164.659 323.083 145.502 381.562 145.502 444.503C145.502 612.219 281.461 748.172 449.171 748.172C596.36 748.172 719.073 643.463 746.921 504.483C749.572 491.229 760.932 481.925 774.429 481.925H865.19C873.681 481.925 880.994 485.296 886.514 491.738C892.047 498.192 894.234 505.931 892.931 514.321L892.913 514.322Z" fill="#264653"/>
<path fill-rule="evenodd" clip-rule="evenodd" d="M381.829 0.344394C308.087 11.4356 240.192 40.4743 182.768 82.8532L182.775 82.8529C175.963 87.8778 172.078 94.8961 171.445 103.343C170.812 111.778 173.595 119.304 179.585 125.282L243.689 189.386C253.289 198.986 268.015 200.389 279.257 192.782C312.505 170.293 350.46 154.226 391.323 146.349C404.669 143.767 414.087 132.369 414.087 118.783V28.111C414.087 19.6446 410.748 12.3632 404.331 6.83005C397.914 1.31567 390.207 -0.921392 381.829 0.344394Z" fill="#FA8334"/>
</svg>
