<svg width="884" height="882" viewBox="0 0 884 882" fill="none" xmlns="http://www.w3.org/2000/svg">
<path d="M31.3177 322.47L173.502 364.287C180.937 366.147 188.372 362.426 190.226 354.991C199.521 328.971 212.531 304.812 229.257 282.505C233.904 276.93 232.971 267.635 227.396 262.986L114.027 167.275C107.519 161.7 98.23 162.627 93.5827 169.135C61.9879 210.019 37.8276 255.557 22.0311 303.883C19.2437 312.245 23.8851 319.68 31.3203 322.467L31.3177 322.47Z" fill="#FA8334"/>
<path d="M258.068 231.398C262.716 236.972 271.078 237.906 277.587 233.258C299.892 215.6 323.125 202.591 349.145 193.301C356.581 190.514 360.295 183.078 358.441 175.643L314.757 34.3799C311.97 26.9446 303.607 22.2969 296.173 25.0842C247.847 41.815 202.309 66.9079 162.351 99.437C155.842 104.085 155.842 114.307 160.49 119.882L258.068 231.398Z" fill="#FA8334"/>
<path d="M258.069 632.858C238.55 613.339 220.9 591.041 207.889 566.874C204.175 560.366 196.74 557.578 189.305 560.366L55.4832 624.496C48.0479 628.211 45.2605 636.579 48.9749 644.015C72.2075 689.553 103.802 730.437 141.905 765.752C147.48 771.327 156.776 770.4 162.35 764.825L258.995 652.376C264.576 646.801 263.643 638.433 258.068 632.857L258.069 632.858Z" fill="#2F7B9A"/>
<path d="M562.881 206.306C587.974 219.316 610.274 235.113 629.791 255.56C635.366 261.134 643.728 261.134 649.309 256.487L759.899 157.047C765.473 151.473 766.407 142.177 760.826 136.603C725.51 99.4338 683.693 68.765 637.228 45.5324C629.792 41.818 621.43 45.5324 617.709 52.9677L556.373 187.715C552.659 195.157 556.38 202.586 562.881 206.306L562.881 206.306Z" fill="#FCAE17"/>
<path d="M670.68 309.459C684.617 333.62 694.841 359.639 700.421 386.592C702.282 394.027 708.784 398.675 716.219 397.741L863.049 374.509C870.484 373.582 876.059 365.213 875.132 357.785C864.909 306.671 847.251 259.28 820.305 214.675C816.59 208.166 807.295 206.313 799.86 210.027L675.335 290.875C668.82 294.589 666.959 302.951 670.68 309.459Z" fill="#FCAE17"/>
<path d="M867.693 441.421H719.935C712.5 441.421 706.925 447.929 705.998 455.358C705.071 483.239 698.563 510.185 689.274 536.206C686.487 543.641 689.274 551.076 696.709 553.864L832.391 613.34C839.827 616.127 848.189 613.34 851.91 605.905C871.429 557.579 881.651 507.4 883.505 455.359C882.565 447.93 876.057 440.495 867.695 441.422L867.693 441.421Z" fill="#264653"/>
<path d="M800.783 672.818L676.258 592.898C669.749 589.183 661.387 591.037 657.673 596.612C641.876 618.917 621.43 639.364 599.125 655.16C592.617 659.808 591.69 668.17 595.411 674.679L677.191 798.277C681.839 804.785 691.128 806.639 697.636 801.991C739.453 772.25 775.696 735.081 805.437 693.262C809.152 685.827 807.291 676.531 800.783 672.817V672.818Z" fill="#264653"/>
<path d="M557.305 695.122C554.518 688.613 546.155 684.899 538.721 687.686C512.7 697.909 485.747 703.484 458.8 705.345C451.365 706.272 444.863 711.853 445.79 719.282L447.651 867.974C447.651 876.336 454.159 882.844 462.521 881.911C514.561 879.123 564.748 867.974 612.14 848.456C619.575 845.668 622.362 836.373 619.575 828.937L557.305 695.122Z" fill="#264653"/>
<path d="M515.486 172.851L554.517 29.7415C557.304 22.3062 552.656 13.9376 544.294 12.083C510.839 4.64772 476.456 3.05176e-05 441.141 3.05176e-05C423.483 3.05176e-05 407.686 0.926997 390.962 2.78745C383.527 3.71442 377.952 11.1497 378.879 18.5848L400.251 165.415C401.178 172.85 407.686 177.498 415.122 177.498C441.142 175.638 471.809 177.498 497.83 182.146C506.192 184.933 513.627 180.286 515.488 172.85L515.486 172.851Z" fill="#FCAE17"/>
<path d="M390.03 701.627C363.083 696.052 337.056 686.756 312.898 673.746C306.389 670.031 298.027 671.885 294.313 678.394L215.325 803.847C210.678 810.355 213.465 819.644 219.973 823.366C264.578 849.386 312.904 867.043 364.017 876.339C371.453 877.266 379.815 871.691 380.742 864.256L401.186 717.426C403.04 709.991 397.465 703.489 390.03 701.629L390.03 701.627Z" fill="#2F7B9A"/>
<path d="M183.724 503.684C177.216 476.738 175.362 448.857 177.216 421.904C178.143 414.469 172.568 407.967 165.133 407.033L18.3022 388.449C9.93995 387.522 2.50483 393.097 2.50483 401.459C-3.06354 451.645 0.650872 502.758 13.661 552.937C15.5214 560.373 23.8837 565.02 31.3195 563.16L173.503 520.409C181.872 518.555 185.586 511.12 183.726 503.685L183.724 503.684Z" fill="#FA8334"/>
</svg>
