<svg width="500" height="500" viewBox="0 0 500 500" fill="none" xmlns="http://www.w3.org/2000/svg">
<path fill-rule="evenodd" clip-rule="evenodd" d="M190.286 309.345C191.106 310.17 191.948 310.978 192.801 311.767L192.801 311.769C194.076 312.938 195.655 313.414 197.362 313.146C199.068 312.872 200.431 311.93 201.273 310.421L218.138 280.426C219.236 278.473 219.068 276.188 217.706 274.41C212.43 267.553 209.295 258.949 209.295 249.626C209.295 238.382 213.851 228.199 221.216 220.839C224.805 217.245 229.065 214.325 233.784 212.274C235.823 211.388 237.075 209.486 237.075 207.26V172.785C237.075 171.059 236.355 169.57 234.993 168.493C233.638 167.426 232.024 167.065 230.34 167.47C214.917 171.144 201.131 179.057 190.286 189.902C175 205.187 165.545 226.301 165.545 249.626C165.545 272.947 175 294.065 190.286 309.345Z" fill="#264653"/>
<path fill-rule="evenodd" clip-rule="evenodd" d="M309.716 189.899C298.872 179.057 285.085 171.142 269.663 167.467L269.661 167.47C267.976 167.065 266.365 167.427 265.008 168.493C263.648 169.57 262.925 171.057 262.925 172.785V207.26C262.925 209.487 264.175 211.389 266.216 212.275C270.937 214.326 275.198 217.246 278.784 220.839C286.15 228.2 290.705 238.383 290.705 249.626C290.705 260.869 286.15 271.047 278.784 278.413C271.418 285.778 261.24 290.334 249.997 290.334C248.667 290.334 247.356 290.275 246.064 290.149C243.86 289.934 241.86 290.979 240.776 292.91L223.855 323.01C223.008 324.526 222.905 326.183 223.572 327.785C224.233 329.387 225.476 330.485 227.144 330.956C234.416 332.99 242.077 334.084 249.997 334.084C273.318 334.084 294.436 324.628 309.716 309.343C325.002 294.062 334.458 272.942 334.458 249.623C334.458 226.298 325.002 205.185 309.716 189.899Z" fill="#FA8334"/>
<path fill-rule="evenodd" clip-rule="evenodd" d="M75 249.628C75 251.832 75.044 254.03 75.1196 256.217L75.1186 256.22C75.1771 257.821 75.8461 259.184 77.0815 260.212C78.3168 261.244 79.7768 261.654 81.3637 261.425L114.494 256.635C117.228 256.242 119.213 253.918 119.181 251.161C119.176 250.654 119.171 250.138 119.171 249.631C119.171 213.5 133.815 180.793 157.484 157.118C177.232 137.375 203.274 123.91 232.334 119.985C235.064 119.618 237.07 117.321 237.07 114.57V81.0835C237.07 79.477 236.453 78.0927 235.254 77.021C234.055 75.9443 232.613 75.4805 231.016 75.6489C190.278 80.0458 153.723 98.4276 126.26 125.891C94.5899 157.553 75 201.305 75 249.628Z" fill="#FCAE17"/>
<path fill-rule="evenodd" clip-rule="evenodd" d="M373.738 125.884C346.275 98.4207 309.724 80.0397 268.982 75.6427L268.979 75.6344C267.383 75.4635 265.94 75.9298 264.741 77.0065C263.542 78.0782 262.925 79.4601 262.925 81.069V114.555C262.925 117.307 264.932 119.604 267.661 119.97C296.72 123.898 322.762 137.363 342.511 157.104C366.178 180.779 380.824 213.484 380.824 249.616C380.824 285.747 366.18 318.454 342.511 342.128C318.836 365.802 286.124 380.448 249.999 380.448C213.876 380.448 181.161 365.803 157.486 342.128C142.113 326.75 130.548 307.561 124.33 286.096C123.563 283.459 121.009 281.814 118.292 282.207L85.1352 286.997C83.5459 287.226 82.2593 288.042 81.3682 289.382C80.4722 290.727 80.2207 292.226 80.6309 293.784C88.5777 324.364 104.591 351.691 126.263 373.359C157.926 405.029 201.678 424.619 250 424.619C298.319 424.619 342.073 405.029 373.738 373.359C405.407 341.696 424.997 297.944 424.997 249.622C424.997 201.303 405.407 157.549 373.738 125.884Z" fill="#2F7B9A"/>
</svg>
