<svg width="350" height="350" viewBox="0 0 350 350" fill="none" xmlns="http://www.w3.org/2000/svg">
<path fill-rule="evenodd" clip-rule="evenodd" d="M115.286 234.345C116.106 235.17 116.949 235.978 117.801 236.767L117.801 236.769C119.076 237.938 120.655 238.414 122.362 238.146C124.068 237.872 125.431 236.93 126.273 235.421L143.138 205.426C144.236 203.473 144.068 201.188 142.706 199.41C137.43 192.553 134.295 183.949 134.295 174.626C134.295 163.382 138.851 153.199 146.216 145.839C149.805 142.245 154.065 139.325 158.784 137.274C160.823 136.388 162.075 134.486 162.075 132.26V97.7849C162.075 96.0588 161.355 94.5695 159.993 93.4929C158.638 92.426 157.024 92.0647 155.34 92.4699C139.917 96.1443 126.131 104.057 115.286 114.902C100 130.187 90.5448 151.301 90.5448 174.626C90.5448 197.947 100 219.065 115.286 234.345Z" fill="#264653"/>
<path fill-rule="evenodd" clip-rule="evenodd" d="M234.716 114.899C223.872 104.057 210.085 96.1417 194.663 92.4674L194.661 92.4705C192.976 92.0652 191.365 92.4265 190.008 93.4934C188.648 94.5701 187.925 96.0569 187.925 97.7854V132.26C187.925 134.487 189.175 136.389 191.216 137.275C195.937 139.326 200.198 142.246 203.784 145.839C211.15 153.201 215.705 163.383 215.705 174.626C215.705 185.869 211.15 196.047 203.784 203.413C196.418 210.778 186.24 215.334 174.997 215.334C173.667 215.334 172.356 215.275 171.064 215.149C168.86 214.934 166.86 215.979 165.776 217.91L148.855 248.01C148.008 249.526 147.905 251.183 148.572 252.785C149.233 254.387 150.476 255.485 152.144 255.956C159.416 257.99 167.077 259.084 174.997 259.084C198.318 259.084 219.436 249.628 234.716 234.343C250.002 219.062 259.458 197.941 259.458 174.623C259.458 151.298 250.002 130.185 234.716 114.899Z" fill="#FA8334"/>
<path fill-rule="evenodd" clip-rule="evenodd" d="M0 174.628C0 176.832 0.0439523 179.03 0.119633 181.217L0.11858 181.22C0.177142 182.822 0.846079 184.184 2.08145 185.212C3.31682 186.244 4.77675 186.654 6.36368 186.425L39.4936 181.635C42.228 181.242 44.2128 178.918 44.1811 176.161C44.1762 175.654 44.1713 175.138 44.1713 174.631C44.1713 138.5 58.815 105.793 82.4843 82.1183C102.232 62.3746 128.274 48.9104 157.334 44.9847C160.064 44.6184 162.07 42.3211 162.07 39.5696V6.08348C162.07 4.47704 161.453 3.09274 160.254 2.02099C159.055 0.944342 157.613 0.480474 156.016 0.64893C115.278 5.04579 78.7229 23.4276 51.2599 50.8907C19.5899 82.5531 0 126.305 0 174.628Z" fill="#FCAE17"/>
<path fill-rule="evenodd" clip-rule="evenodd" d="M298.738 50.8844C271.275 23.4207 234.724 5.03967 193.982 0.64268L193.979 0.63443C192.383 0.463493 190.94 0.929804 189.741 2.00649C188.542 3.07824 187.925 4.46011 187.925 6.06898V39.5551C187.925 42.3066 189.932 44.604 192.661 44.9702C221.72 48.8983 247.762 62.3626 267.511 82.1038C291.178 105.779 305.824 138.484 305.824 174.616C305.824 210.747 291.18 243.454 267.511 267.128C243.836 290.802 211.124 305.448 174.999 305.448C138.876 305.448 106.161 290.803 82.4864 267.128C67.1127 251.75 55.5478 232.561 49.3296 211.096C48.563 208.459 46.0093 206.814 43.292 207.207L10.1352 211.997C8.54592 212.226 7.2593 213.042 6.36818 214.382C5.47217 215.727 5.22071 217.226 5.63087 218.784C13.5777 249.364 29.5908 276.691 51.2632 298.359C82.9257 330.029 126.678 349.619 175 349.619C223.319 349.619 267.073 330.029 298.738 298.359C330.407 266.696 349.997 222.944 349.997 174.622C349.997 126.303 330.407 82.5493 298.738 50.8844Z" fill="#2F7B9A"/>
</svg>
